<svg version="1.2" baseProfile="tiny-ps" xmlns="http://www.w3.org/2000/svg" viewBox="0 0 1370 652" width="1370" height="652">
	<title>colored waters (1)-pdf</title>
	<style>
		tspan { white-space:pre }
		.shp0 { fill: #0388a6 } 
		.shp1 { fill: none;stroke: #331111;stroke-linecap:round;stroke-linejoin:round;stroke-width: 8.517 } 
		.shp2 { fill: #0388a6;stroke: #331111;stroke-linecap:round;stroke-linejoin:round;stroke-width: 8.517 } 
		.shp3 { fill: #331111 } 
	</style>
	<path id="Path 4" class="shp0" d="M487.08 391.84C474.75 312.88 401.48 279.28 357.86 233.79C298.04 171.41 304.84 86.01 327.95 62.88C347.67 43.15 430.29 29.57 493.7 102.8C558.51 177.65 560.02 302.47 545.63 381.82C526.11 489.53 437.2 510.2 437.2 510.2C437.2 510.2 502.43 489.95 487.08 391.84Z" />
	<path id="Path 5" class="shp1" d="M487.08 391.84C474.75 312.88 401.48 279.28 357.86 233.79C298.04 171.41 304.84 86.01 327.95 62.88C347.67 43.15 430.29 29.57 493.7 102.8C558.51 177.65 560.02 302.47 545.63 381.82C526.11 489.53 437.2 510.2 437.2 510.2C437.2 510.2 502.43 489.95 487.08 391.84Z" />
	<path id="Path 6" class="shp2" d="M498.71 119.21C498.71 119.21 511.91 104 534.86 108.22C557.83 112.45 572.19 146.18 572.19 146.18C572.19 146.18 538.41 149.65 514.75 145.42" />
	<path id="Path 7" class="shp2" d="M341.39 202.89C341.39 202.89 324.96 214.54 326.92 237.83C328.86 261.11 360.99 278.72 360.99 278.72C360.99 278.72 367.75 245.41 365.87 221.45" />
	<path id="Path 8" class="shp3" d="M466.04 489.11C466.04 489.11 466.84 488.32 468.34 486.83C469.79 485.32 472.1 483.14 474.75 480.31C475.92 478.86 477.24 477.25 478.66 475.51C479.38 474.63 480.13 473.73 480.9 472.78C481.65 471.81 482.33 470.69 483.08 469.6C484.52 467.36 486.21 465.08 487.71 462.49C489.13 459.85 490.63 457.08 492.18 454.19C493.49 451.16 494.86 448.01 496.26 444.75C497.49 441.41 498.58 437.88 499.81 434.3C500.77 430.63 501.74 426.84 502.65 422.95C503.28 419 504.17 415.01 504.66 410.87C505.05 406.72 505.75 402.52 505.85 398.22C505.97 396.06 506.08 393.9 506.19 391.73C506.3 389.56 506.21 387.36 506.24 385.16C506.34 376.36 505.64 367.41 504.77 358.49C504.27 354.03 503.66 349.58 503.03 345.16C502.24 340.75 501.65 336.32 500.71 332C499.84 327.65 498.96 323.35 497.93 319.13C496.99 314.89 495.9 310.74 494.81 306.66C492.65 298.48 490.26 290.67 487.86 283.3C485.41 275.95 483 269.02 480.57 262.7C475.77 250.04 471.26 239.68 467.95 232.5C464.64 225.32 462.55 221.31 462.55 221.31C462.55 221.31 464.76 225.25 468.28 232.34C471.81 239.42 476.62 249.66 481.8 262.21C484.43 268.47 487.05 275.34 489.73 282.66C492.35 289.98 494.98 297.76 497.41 305.92C498.61 310 499.84 314.14 500.92 318.38C502.09 322.6 503.09 326.92 504.09 331.28C505.17 335.62 505.9 340.07 506.83 344.51C507.6 348.97 508.35 353.45 509 357.96C510.15 366.99 511.13 376.09 511.29 385.09C511.33 387.33 511.48 389.58 511.44 391.81C511.39 394.04 511.33 396.26 511.29 398.47C511.3 402.89 510.73 407.24 510.44 411.54C510.06 415.82 509.27 420.01 508.72 424.12C507.89 428.2 507.01 432.19 506.11 436.04C504.95 439.85 503.91 443.58 502.71 447.13C501.32 450.61 499.98 453.99 498.69 457.23C497.12 460.34 495.63 463.34 494.2 466.19C492.69 468.98 490.96 471.48 489.49 473.91C488.71 475.11 488.04 476.31 487.25 477.39C486.42 478.46 485.62 479.49 484.87 480.49C483.33 482.47 481.92 484.29 480.64 485.94C477.98 488.96 475.81 491.11 474.37 492.69C472.92 494.23 472.15 495.06 472.15 495.06C470.53 496.77 467.84 496.85 466.13 495.23C464.41 493.61 464.34 490.92 465.95 489.21C465.97 489.18 466.01 489.14 466.04 489.11Z" />
	<path id="Path 9" class="shp0" d="M474.37 485.67C457.52 468.78 390.27 522.38 335.42 506.88C342.9 548.58 390.27 541.09 408.96 554.82C427.65 568.54 405.22 602.23 458.8 625.92C452.57 574.78 491.23 502.54 474.37 485.67Z" />
	<path id="Path 10" class="shp1" d="M474.37 485.67C457.52 468.78 390.27 522.38 335.42 506.88C342.9 548.58 390.27 541.09 408.96 554.82C427.65 568.54 405.22 602.23 458.8 625.92C452.57 574.78 491.23 502.54 474.37 485.67Z" />
	<path id="Path 11" class="shp0" d="M103.56 261.22C115.9 340.17 189.16 373.78 232.78 419.27C292.6 481.64 285.8 567.05 262.69 590.18C242.98 609.92 160.34 623.49 96.94 550.26C32.14 475.41 30.62 350.58 45.01 271.23C64.54 163.53 153.43 142.86 153.43 142.86C153.43 142.86 88.22 163.12 103.56 261.22Z" />
	<path id="Path 12" class="shp1" d="M103.56 261.22C115.9 340.17 189.16 373.78 232.78 419.27C292.6 481.64 285.8 567.05 262.69 590.18C242.98 609.92 160.34 623.49 96.94 550.26C32.14 475.41 30.62 350.58 45.01 271.23C64.54 163.53 153.43 142.86 153.43 142.86C153.43 142.86 88.22 163.12 103.56 261.22Z" />
	<path id="Path 14" class="shp2" d="M249.26 450.17C249.26 450.17 265.68 438.53 263.73 415.24C261.78 391.95 229.65 374.34 229.65 374.34C229.65 374.34 222.89 407.64 224.78 431.61" />
	<path id="Path 13" class="shp2" d="M91.93 533.85C91.93 533.85 78.73 549.06 55.78 544.83C32.81 540.61 18.46 506.89 18.46 506.89C18.46 506.89 52.24 503.41 75.88 507.64" />
	<path id="Path 16" class="shp0" d="M116.28 167.4C133.13 184.27 200.38 130.67 255.21 146.19C247.74 104.48 200.38 111.96 181.69 98.24C163 84.52 185.42 50.83 131.83 27.13C138.07 78.29 99.42 150.52 116.28 167.4Z" />
	<path id="Path 15" class="shp3" d="M124.61 163.94C124.61 163.94 123.81 164.74 122.31 166.24C120.85 167.74 118.54 169.91 115.9 172.75C114.72 174.2 113.41 175.81 111.99 177.56C111.27 178.43 110.52 179.34 109.75 180.29C108.99 181.25 108.32 182.37 107.57 183.46C106.14 185.7 104.44 187.98 102.94 190.57C101.52 193.21 100.02 195.98 98.46 198.87C97.15 201.9 95.79 205.05 94.39 208.32C93.15 211.65 92.06 215.17 90.83 218.77C89.87 222.43 88.92 226.22 87.99 230.11C87.36 234.06 86.48 238.06 85.99 242.2C85.59 246.35 84.89 250.54 84.79 254.85C84.68 257 84.57 259.16 84.45 261.33C84.35 263.51 84.43 265.7 84.4 267.9C84.31 276.7 85 285.65 85.87 294.57C86.38 299.03 86.98 303.48 87.61 307.91C88.4 312.31 89 316.74 89.95 321.06C90.81 325.4 91.68 329.72 92.71 333.94C93.66 338.17 94.75 342.33 95.84 346.4C98 354.57 100.39 362.38 102.78 369.76C105.23 377.12 107.65 384.04 110.08 390.36C114.88 403.03 119.38 413.39 122.7 420.56C126.01 427.74 128.1 431.75 128.1 431.75C128.1 431.75 125.89 427.8 122.37 420.71C118.84 413.63 114.02 403.41 108.84 390.85C106.22 384.59 103.59 377.71 100.91 370.41C98.29 363.08 95.66 355.29 93.24 347.14C92.03 343.07 90.81 338.92 89.74 334.68C88.56 330.46 87.56 326.13 86.55 321.78C85.47 317.44 84.74 312.99 83.82 308.55C83.04 304.09 82.29 299.6 81.65 295.1C80.5 286.07 79.52 276.98 79.35 267.97C79.32 265.73 79.17 263.49 79.21 261.26C79.26 259.02 79.31 256.8 79.36 254.59C79.34 250.17 79.92 245.81 80.2 241.52C80.59 237.23 81.37 233.05 81.92 228.94C82.76 224.86 83.64 220.88 84.54 217.01C85.7 213.22 86.74 209.48 87.94 205.93C89.33 202.44 90.67 199.07 91.95 195.83C93.52 192.71 95.02 189.72 96.45 186.88C97.96 184.08 99.69 181.58 101.16 179.15C101.94 177.95 102.61 176.75 103.4 175.67C104.22 174.6 105.02 173.57 105.78 172.57C107.32 170.59 108.73 168.77 110 167.12C112.67 164.1 114.84 161.95 116.28 160.37C117.73 158.83 118.5 158.01 118.5 158.01C120.11 156.3 122.81 156.21 124.52 157.83C126.23 159.44 126.31 162.14 124.69 163.86C124.67 163.88 124.63 163.91 124.61 163.94Z" />
	<path id="Path 17" class="shp1" d="M116.28 167.4C133.13 184.27 200.38 130.67 255.21 146.19C247.74 104.48 200.38 111.96 181.69 98.24C163 84.52 185.42 50.83 131.83 27.13C138.07 78.29 99.42 150.52 116.28 167.4Z" />
	<path id="CO " style="opacity: 0.4" fill="#0388a6" aria-label="CO"  d="M684.88 346.5Q666.91 346.5 655.9 335.31Q644.99 324.12 644.99 304L644.99 227.64Q644.99 203.57 654.49 190.78Q664.09 177.99 685.64 177.99Q697.4 177.99 706.53 182.31Q715.75 186.64 721.02 195.29Q726.29 203.85 726.29 216.92L726.29 245.51L693.35 245.51L693.35 221.06Q693.35 213.63 691.47 211.09Q689.59 208.46 685.64 208.46Q681.03 208.46 679.43 211.84Q677.83 215.13 677.83 220.68L677.83 303.53Q677.83 310.39 679.8 313.22Q681.87 316.04 685.64 316.04Q689.87 316.04 691.56 312.56Q693.35 309.08 693.35 303.53L693.35 273.72L726.66 273.72L726.66 305.03Q726.66 326.85 715.65 336.72Q704.64 346.5 684.88 346.5ZM777.19 346.5Q757.34 346.5 746.8 334.56Q736.36 322.52 736.36 299.86L736.36 221.25Q736.36 199.99 746.71 188.99Q757.15 177.99 777.19 177.99Q797.24 177.99 807.59 188.99Q818.03 199.99 818.03 221.25L818.03 299.86Q818.03 322.52 807.49 334.56Q797.05 346.5 777.19 346.5ZM777.48 316.04Q785 316.04 785 301.46L785 220.68Q785 208.46 777.66 208.46Q769.38 208.46 769.38 220.96L769.38 301.65Q769.38 309.36 771.27 312.74Q773.15 316.04 777.48 316.04Z" />
	<path id="CO " fill="#ffffff" aria-label="CO"  d="M680.8 341.5Q662.83 341.5 651.82 330.31Q640.9 319.12 640.9 299L640.9 222.64Q640.9 198.57 650.41 185.78Q660.01 172.99 681.55 172.99Q693.32 172.99 702.44 177.31Q711.67 181.64 716.94 190.29Q722.2 198.85 722.2 211.92L722.2 240.51L689.27 240.51L689.27 216.06Q689.27 208.63 687.39 206.09Q685.51 203.46 681.55 203.46Q676.94 203.46 675.34 206.84Q673.74 210.13 673.74 215.68L673.74 298.53Q673.74 305.39 675.72 308.22Q677.79 311.04 681.55 311.04Q685.79 311.04 687.48 307.56Q689.27 304.08 689.27 298.53L689.27 268.72L722.58 268.72L722.58 300.03Q722.58 321.85 711.57 331.72Q700.56 341.5 680.8 341.5ZM773.11 341.5Q753.26 341.5 742.72 329.56Q732.27 317.52 732.27 294.86L732.27 216.25Q732.27 194.99 742.62 183.99Q753.07 172.99 773.11 172.99Q793.15 172.99 803.5 183.99Q813.95 194.99 813.95 216.25L813.95 294.86Q813.95 317.52 803.41 329.56Q792.97 341.5 773.11 341.5ZM773.39 311.04Q780.92 311.04 780.92 296.46L780.92 215.68Q780.92 203.46 773.58 203.46Q765.3 203.46 765.3 215.96L765.3 296.65Q765.3 304.36 767.18 307.74Q769.07 311.04 773.39 311.04Z" />
	<path id="LORED " style="opacity: 0.4" fill="#0388a6" aria-label="LORED"  d="M898.16 345L830.97 345L830.97 179.49L864.09 179.49L864.09 316.79L898.16 316.79L898.16 345ZM947.09 346.5Q927.23 346.5 916.69 334.56Q906.25 322.52 906.25 299.86L906.25 221.25Q906.25 199.99 916.6 188.99Q927.04 177.99 947.09 177.99Q967.13 177.99 977.48 188.99Q987.92 199.99 987.92 221.25L987.92 299.86Q987.92 322.52 977.39 334.56Q966.94 346.5 947.09 346.5ZM947.37 316.04Q954.9 316.04 954.9 301.46L954.9 220.68Q954.9 208.46 947.56 208.46Q939.28 208.46 939.28 220.96L939.28 301.65Q939.28 309.36 941.16 312.74Q943.04 316.04 947.37 316.04ZM1034.78 345L1001.29 345L1001.29 179.49L1052.1 179.49Q1064.8 179.49 1071.29 185.32Q1077.79 191.06 1079.95 201.5Q1082.21 211.84 1082.21 225.85Q1082.21 239.39 1078.73 247.48Q1075.34 255.57 1065.84 258.67Q1073.65 260.27 1076.75 266.48Q1079.95 272.59 1079.95 282.37L1079.95 345L1047.3 345L1047.3 280.21Q1047.3 272.97 1044.29 271.27Q1041.37 269.49 1034.78 269.49L1034.78 345ZM1034.97 210.15L1034.97 240.81L1042.97 240.81Q1049.84 240.81 1049.84 225.85Q1049.84 216.17 1048.33 213.16Q1046.83 210.15 1042.69 210.15L1034.97 210.15ZM1161.53 345L1093.12 345L1093.12 179.49L1159.37 179.49L1159.37 211.47L1126.81 211.47L1126.81 243.72L1158.05 243.72L1158.05 274.85L1126.81 274.85L1126.81 312.74L1161.53 312.74L1161.53 345ZM1216.86 345L1172.45 345L1172.45 179.49L1217.99 179.49Q1235.87 179.49 1244.9 189.46Q1253.94 199.33 1253.94 218.42L1253.94 295.91Q1253.94 319.42 1245.66 332.21Q1237.47 345 1216.86 345ZM1205.76 208.46L1205.76 315.75L1211.5 315.75Q1220.63 315.75 1220.63 306.91L1220.63 221.53Q1220.63 213.25 1218.37 210.9Q1216.2 208.46 1209.43 208.46L1205.76 208.46Z" />
	<path id="LORED " fill="#ffffff" aria-label="LORED"  d="M894.07 340L826.89 340L826.89 174.49L860.01 174.49L860.01 311.79L894.07 311.79L894.07 340ZM943 341.5Q923.15 341.5 912.61 329.56Q902.17 317.52 902.17 294.86L902.17 216.25Q902.17 194.99 912.52 183.99Q922.96 172.99 943 172.99Q963.05 172.99 973.4 183.99Q983.84 194.99 983.84 216.25L983.84 294.86Q983.84 317.52 973.3 329.56Q962.86 341.5 943 341.5ZM943.29 311.04Q950.81 311.04 950.81 296.46L950.81 215.68Q950.81 203.46 943.47 203.46Q935.19 203.46 935.19 215.96L935.19 296.65Q935.19 304.36 937.08 307.74Q938.96 311.04 943.29 311.04ZM1030.7 340L997.2 340L997.2 174.49L1048.02 174.49Q1060.72 174.49 1067.21 180.32Q1073.71 186.06 1075.87 196.5Q1078.13 206.84 1078.13 220.85Q1078.13 234.39 1074.65 242.48Q1071.26 250.57 1061.75 253.67Q1069.56 255.27 1072.67 261.48Q1075.87 267.59 1075.87 277.37L1075.87 340L1043.22 340L1043.22 275.21Q1043.22 267.97 1040.21 266.27Q1037.29 264.49 1030.7 264.49L1030.7 340ZM1030.89 205.15L1030.89 235.81L1038.89 235.81Q1045.76 235.81 1045.76 220.85Q1045.76 211.17 1044.25 208.16Q1042.75 205.15 1038.61 205.15L1030.89 205.15ZM1157.45 340L1089.04 340L1089.04 174.49L1155.29 174.49L1155.29 206.47L1122.73 206.47L1122.73 238.72L1153.97 238.72L1153.97 269.85L1122.73 269.85L1122.73 307.74L1157.45 307.74L1157.45 340ZM1212.78 340L1168.37 340L1168.37 174.49L1213.91 174.49Q1231.79 174.49 1240.82 184.46Q1249.86 194.33 1249.86 213.42L1249.86 290.91Q1249.86 314.42 1241.57 327.21Q1233.39 340 1212.78 340ZM1201.68 203.46L1201.68 310.75L1207.42 310.75Q1216.54 310.75 1216.54 301.91L1216.54 216.53Q1216.54 208.25 1214.29 205.9Q1212.12 203.46 1205.35 203.46L1201.68 203.46Z" />
	<path id="WATERS " style="opacity: 0.4" fill="#0388a6" aria-label="WATERS"  d="M726.76 534L686.39 534L668.61 368.49L700.97 368.49L710.1 472.97L719.42 368.49L750.28 368.49L759.13 472.97L767.97 368.49L800.72 368.49L782.65 534L742.94 534L734.66 454.35L726.76 534ZM835.63 534L803.45 534L819.44 368.49L875.62 368.49L891.33 534L860 534L857.65 507.29L837.7 507.29L835.63 534ZM846.35 396.7L840.05 480.87L855.11 480.87L847.86 396.7L846.35 396.7ZM946.38 534L913.26 534L913.26 400.28L893.59 400.28L893.59 368.49L966.05 368.49L966.05 400.28L946.38 400.28L946.38 534ZM1043.68 534L975.27 534L975.27 368.49L1041.51 368.49L1041.51 400.47L1008.95 400.47L1008.95 432.72L1040.19 432.72L1040.19 463.85L1008.95 463.85L1008.95 501.74L1043.68 501.74L1043.68 534ZM1088.09 534L1054.59 534L1054.59 368.49L1105.4 368.49Q1118.11 368.49 1124.6 374.32Q1131.09 380.06 1133.26 390.5Q1135.52 400.84 1135.52 414.85Q1135.52 428.39 1132.03 436.48Q1128.65 444.57 1119.14 447.67Q1126.95 449.27 1130.06 455.48Q1133.26 461.59 1133.26 471.37L1133.26 534L1100.61 534L1100.61 469.21Q1100.61 461.97 1097.59 460.27Q1094.68 458.49 1088.09 458.49L1088.09 534ZM1088.28 399.15L1088.28 429.81L1096.28 429.81Q1103.15 429.81 1103.15 414.85Q1103.15 405.17 1101.64 402.16Q1100.13 399.15 1095.99 399.15L1088.28 399.15ZM1185.76 535.5Q1163.09 535.5 1153.02 524.22Q1143.04 512.94 1143.04 488.3L1143.04 472.12L1175.79 472.12L1175.79 492.81Q1175.79 498.55 1177.48 501.84Q1179.27 505.04 1183.6 505.04Q1188.12 505.04 1189.81 502.4Q1191.6 499.77 1191.6 493.75Q1191.6 486.13 1190.09 481.06Q1188.59 475.88 1184.82 471.28Q1181.15 466.57 1174.57 460.37L1159.7 446.26Q1143.04 430.56 1143.04 410.34Q1143.04 389.18 1152.83 378.08Q1162.71 366.99 1181.34 366.99Q1204.11 366.99 1213.62 379.12Q1223.21 391.25 1223.21 415.98L1189.53 415.98L1189.53 404.6Q1189.53 401.22 1187.55 399.34Q1185.67 397.46 1182.38 397.46Q1178.42 397.46 1176.54 399.71Q1174.75 401.88 1174.75 405.36Q1174.75 408.83 1176.64 412.88Q1178.52 416.92 1184.07 422.19L1203.17 440.53Q1208.91 445.98 1213.71 452.09Q1218.51 458.11 1221.43 466.2Q1224.34 474.19 1224.34 485.76Q1224.34 509.08 1215.69 522.34Q1207.12 535.5 1185.76 535.5Z" />
	<path id="WATERS " fill="#ffffff" aria-label="WATERS"  d="M722.68 530L682.31 530L664.52 364.49L696.89 364.49L706.02 468.97L715.34 364.49L746.2 364.49L755.04 468.97L763.89 364.49L796.64 364.49L778.57 530L738.86 530L730.58 450.35L722.68 530ZM831.55 530L799.36 530L815.36 364.49L871.54 364.49L887.25 530L855.92 530L853.56 503.29L833.62 503.29L831.55 530ZM842.27 392.7L835.97 476.87L851.02 476.87L843.78 392.7L842.27 392.7ZM942.3 530L909.18 530L909.18 396.28L889.51 396.28L889.51 364.49L961.96 364.49L961.96 396.28L942.3 396.28L942.3 530ZM1039.59 530L971.19 530L971.19 364.49L1037.43 364.49L1037.43 396.47L1004.87 396.47L1004.87 428.72L1036.11 428.72L1036.11 459.85L1004.87 459.85L1004.87 497.74L1039.59 497.74L1039.59 530ZM1084.01 530L1050.51 530L1050.51 364.49L1101.32 364.49Q1114.03 364.49 1120.52 370.32Q1127.01 376.06 1129.18 386.5Q1131.43 396.84 1131.43 410.85Q1131.43 424.39 1127.95 432.48Q1124.56 440.57 1115.06 443.67Q1122.87 445.27 1125.98 451.48Q1129.18 457.59 1129.18 467.37L1129.18 530L1096.52 530L1096.52 465.21Q1096.52 457.97 1093.51 456.27Q1090.6 454.49 1084.01 454.49L1084.01 530ZM1084.2 395.15L1084.2 425.81L1092.2 425.81Q1099.06 425.81 1099.06 410.85Q1099.06 401.17 1097.56 398.16Q1096.05 395.15 1091.91 395.15L1084.2 395.15ZM1181.68 531.5Q1159 531.5 1148.94 520.22Q1138.96 508.94 1138.96 484.3L1138.96 468.12L1171.71 468.12L1171.71 488.81Q1171.71 494.55 1173.4 497.84Q1175.19 501.04 1179.52 501.04Q1184.03 501.04 1185.73 498.4Q1187.52 495.77 1187.52 489.75Q1187.52 482.13 1186.01 477.06Q1184.5 471.88 1180.74 467.28Q1177.07 462.57 1170.48 456.37L1155.62 442.26Q1138.96 426.56 1138.96 406.34Q1138.96 385.18 1148.75 374.08Q1158.63 362.99 1177.26 362.99Q1200.03 362.99 1209.53 375.12Q1219.13 387.25 1219.13 411.98L1185.45 411.98L1185.45 400.6Q1185.45 397.22 1183.47 395.34Q1181.59 393.46 1178.29 393.46Q1174.34 393.46 1172.46 395.71Q1170.67 397.88 1170.67 401.36Q1170.67 404.83 1172.55 408.88Q1174.44 412.92 1179.99 418.19L1199.09 436.53Q1204.83 441.98 1209.63 448.09Q1214.43 454.11 1217.34 462.2Q1220.26 470.19 1220.26 481.76Q1220.26 505.08 1211.6 518.34Q1203.04 531.5 1181.68 531.5Z" />
</svg>