<svg style="object-fit:cover" id="my-svg" version="1" baseProfile="full" width="100%" height="100%" viewBox="0 0 1024 625" xmlns="http://www.w3.org/2000/svg"><rect width="1024" height="625" fill="#faf5f5"/><defs><radialGradient id="radial-gradient" cx="0.5" cy="0.75" r="0.45"><stop offset="0%" stop-color="#17336590"/><stop offset="100%" stop-color="#1c709490"/></radialGradient></defs><path transform="scale(1, 1)" d="M 0,625 V 0,312 C 56.86613992900493,354.0886293369976 113.73227985800986,396.1772586739952 164,374 C 214.26772014199014,351.8227413260048 257.93702049696554,265.37959464101687 323,245 C 388.06297950303446,224.62040535898316 474.5196381541281,270.30436276193745 533,305 C 591.4803618458719,339.69563723806255 621.9844268865223,363.40295431123326 676,346 C 730.0155731134777,328.59704568876674 807.5426542997823,270.0838199931295 877,242 C 946.4573457002177,213.91618000687046 1007.844955914348,216.2617657162487 1031,233 C 1054.155044085652,249.7382342837513 1039.0775220428259,280.8691171418757 1024,312 C 1024,312 1024,625 1024,625 Z" stroke="none" stroke-width="0" fill="url(#radial-gradient)" class="transition-all duration-300 ease-in-out delay-150" style="transform-origin: center center;"/><defs><radialGradient id="radial-gradient" cx="0.5" cy="0.75" r="0.45"><stop offset="0%" stop-color="#173365ff"/><stop offset="100%" stop-color="#1c7094ff"/></radialGradient></defs><path transform="scale(1, 1)" d="M 0,625 V 0,468 C 47.139585480361845,458.4074201305393 94.27917096072369,448.81484026107864 157,449 C 219.7208290392763,449.18515973892136 298.02290163746704,459.14805908622463 350,487 C 401.97709836253296,514.8519409137754 427.629222489408,560.5929233940226 488,536 C 548.370777510592,511.40707660597735 643.4602084049011,416.48024733768466 708,401 C 772.5397915950989,385.51975266231534 806.5299438909881,449.4860872552388 857,494 C 907.4700561090119,538.5139127447612 974.4200160311464,563.5754036413604 1005,556 C 1035.5799839688536,548.4245963586396 1029.7899919844267,508.2122981793198 1024,468 C 1024,468 1024,625 1024,625 Z" stroke="none" stroke-width="0" fill="url(#radial-gradient)" class="transition-all duration-300 ease-in-out delay-150" style="transform-origin: center center;"/></svg>