<?xml version="1.0" standalone="no"?>
<!DOCTYPE svg PUBLIC "-//W3C//DTD SVG 20010904//EN"
 "http://www.w3.org/TR/2001/REC-SVG-20010904/DTD/svg10.dtd">
<svg version="1.0" xmlns="http://www.w3.org/2000/svg"
 width="1280.000000pt" height="720.000000pt" viewBox="0 0 1280.000000 720.000000"
 preserveAspectRatio="xMidYMid meet">
<g transform="translate(0.000000,720.000000) scale(0.100000,-0.100000)"
fill="#000000" stroke="none">
<path d="M4197 6979 c-134 -32 -276 -167 -367 -349 -166 -334 -500 -650 -899
-850 -201 -101 -354 -148 -583 -179 -259 -36 -365 -71 -454 -152 -59 -55 -83
-107 -84 -181 0 -118 79 -246 229 -371 47 -39 123 -102 167 -139 283 -236 482
-647 526 -1086 16 -158 3 -293 -49 -502 -34 -139 -38 -169 -38 -285 0 -119 2
-134 25 -179 14 -28 42 -64 63 -80 37 -30 43 -31 135 -31 132 1 180 22 460
208 125 82 259 164 298 182 286 132 636 167 964 95 196 -42 315 -97 546 -252
205 -138 287 -173 405 -173 67 0 82 4 125 31 39 23 56 43 82 94 54 107 58 213
17 480 -67 436 105 990 421 1353 37 43 134 132 215 197 243 197 323 306 324
446 0 62 -4 77 -30 120 -39 62 -111 116 -198 149 -88 32 -119 39 -318 69 -90
14 -204 37 -253 51 -308 90 -637 290 -888 538 -150 149 -222 250 -358 497 -50
93 -147 203 -218 248 -80 52 -180 71 -265 51z"/>
<path d="M2509 3441 c-32 -33 -36 -58 -14 -100 16 -33 33 -41 80 -41 40 0 50
12 67 74 12 47 12 48 -15 72 -39 33 -81 31 -118 -5z"/>
</g>
</svg>
